<svg xmlns="http://www.w3.org/2000/svg" width="131.642" height="44.004" viewBox="0 0 131.642 44.004">
    <g id="apple-app-store_eng" transform="translate(0 0)">
        <g id="Group_56" transform="translate(0 0)">
            <g id="Group_54">
                <path id="Path_146" d="M121.159,0H10.489c-.4,0-.8,0-1.2,0-.337,0-.671.009-1.011.014a14.537,14.537,0,0,0-2.2.194A7.332,7.332,0,0,0,3.978.9,7.082,7.082,0,0,0,2.2,2.2,6.885,6.885,0,0,0,.9,3.98,7.262,7.262,0,0,0,.214,6.074a14.294,14.294,0,0,0-.2,2.2C.006,8.614.005,8.952,0,9.29V34.717c.005.342.006.672.017,1.014a14.293,14.293,0,0,0,.2,2.2A7.247,7.247,0,0,0,.9,40.029,6.829,6.829,0,0,0,2.2,41.8a6.9,6.9,0,0,0,1.781,1.3,7.372,7.372,0,0,0,2.091.694,14.8,14.8,0,0,0,2.2.194c.34.007.674.012,1.011.012.4,0,.8,0,1.2,0h110.67c.4,0,.8,0,1.192,0,.335,0,.679,0,1.014-.012a14.608,14.608,0,0,0,2.2-.194,7.485,7.485,0,0,0,2.1-.694,6.906,6.906,0,0,0,1.779-1.3,7.035,7.035,0,0,0,1.3-1.776,7.265,7.265,0,0,0,.681-2.095,14.857,14.857,0,0,0,.2-2.2c0-.342,0-.673,0-1.014.009-.4.009-.8.009-1.2V10.491c0-.4,0-.8-.009-1.2,0-.337,0-.676,0-1.013a14.858,14.858,0,0,0-.2-2.2,7.28,7.28,0,0,0-.681-2.094A7.113,7.113,0,0,0,127.665.9a7.445,7.445,0,0,0-2.1-.69,14.349,14.349,0,0,0-2.2-.194C123.03.011,122.686,0,122.351,0c-.4,0-.8,0-1.192,0Z" transform="translate(0 0)" fill="#a6a6a6"/>
                <path id="Path_147" d="M9.2,42.954c-.335,0-.662,0-.995-.012a13.957,13.957,0,0,1-2.056-.179,6.473,6.473,0,0,1-1.823-.6,5.947,5.947,0,0,1-1.537-1.118A5.853,5.853,0,0,1,1.67,39.5a6.3,6.3,0,0,1-.6-1.823,13.656,13.656,0,0,1-.183-2.063c-.007-.232-.016-1-.016-1V9.2s.01-.761.016-.984a13.608,13.608,0,0,1,.182-2.059,6.332,6.332,0,0,1,.6-1.828A5.911,5.911,0,0,1,2.786,2.792,6.122,6.122,0,0,1,4.329,1.667a6.406,6.406,0,0,1,1.819-.6A13.846,13.846,0,0,1,8.211.888L9.2.875H122.258l1,.014a13.625,13.625,0,0,1,2.044.179,6.533,6.533,0,0,1,1.838.6A6.154,6.154,0,0,1,129.8,4.333a6.34,6.34,0,0,1,.589,1.814,14.294,14.294,0,0,1,.191,2.076c0,.312,0,.646,0,.979.009.413.009.805.009,1.2V33.426c0,.4,0,.79-.009,1.183,0,.358,0,.685,0,1.023a14.008,14.008,0,0,1-.188,2.039,6.314,6.314,0,0,1-.594,1.837,6.029,6.029,0,0,1-1.117,1.524,5.955,5.955,0,0,1-1.539,1.125,6.448,6.448,0,0,1-1.835.6,13.8,13.8,0,0,1-2.056.179c-.322.007-.66.012-.987.012l-1.192,0Z" transform="translate(0.087 0.088)"/>
            </g>
            <g id="_Group_" transform="translate(10.97 9.593)">
                <g id="_Group_2" >
                    <g id="_Group_3">
                        <path id="_Path_" d="M26.25,20.934a5.444,5.444,0,0,1,2.592-4.568,5.573,5.573,0,0,0-4.391-2.374C22.6,13.8,20.814,15.1,19.872,15.1c-.96,0-2.409-1.086-3.97-1.054a5.847,5.847,0,0,0-4.921,3c-2.128,3.684-.541,9.1,1.5,12.075,1.02,1.458,2.211,3.087,3.771,3.029,1.526-.063,2.1-.973,3.938-.973,1.825,0,2.359.973,3.95.936,1.637-.027,2.669-1.464,3.653-2.936a12.059,12.059,0,0,0,1.67-3.4,5.261,5.261,0,0,1-3.211-4.84Z" transform="translate(-9.972 -8.195)" fill="#fff"/>
                        <path id="_Path_2" d="M22.362,12.56a5.36,5.36,0,0,0,1.226-3.84,5.454,5.454,0,0,0-3.529,1.826,5.1,5.1,0,0,0-1.258,3.7,4.509,4.509,0,0,0,3.561-1.684Z" transform="translate(-9.089 -8.72)" fill="#fff"/>
                    </g>
                </g>
                <g id="Group_55" transform="translate(26.904 10.067)">
                    <path id="Path_148" d="M43.091,28.047H37.883l-1.25,3.692H34.427l4.932-13.661h2.291l4.932,13.661H44.34Zm-4.668-1.7H42.55L40.515,20.35h-.057Z" transform="translate(-34.427 -17.85)" fill="#fff"/>
                    <path id="Path_149" d="M56.013,26.432c0,3.1-1.657,5.084-4.156,5.084a3.377,3.377,0,0,1-3.134-1.743h-.047v4.933H46.631V21.452H48.61v1.657h.038a3.533,3.533,0,0,1,3.171-1.761C54.347,21.348,56.013,23.346,56.013,26.432Zm-2.1,0c0-2.016-1.042-3.342-2.632-3.342-1.562,0-2.613,1.354-2.613,3.342,0,2.007,1.051,3.351,2.613,3.351,1.59,0,2.632-1.316,2.632-3.351Z" transform="translate(-33.206 -17.523)" fill="#fff"/>
                    <path id="Path_150" d="M65.978,26.432c0,3.1-1.657,5.084-4.157,5.084a3.376,3.376,0,0,1-3.134-1.743h-.047v4.933H56.6V21.452h1.979v1.657h.038a3.533,3.533,0,0,1,3.171-1.761C64.312,21.348,65.978,23.346,65.978,26.432Zm-2.1,0c0-2.016-1.042-3.342-2.632-3.342-1.562,0-2.613,1.354-2.613,3.342,0,2.007,1.051,3.351,2.613,3.351,1.59,0,2.632-1.316,2.632-3.351Z" transform="translate(-32.208 -17.523)" fill="#fff"/>
                    <path id="Path_151" d="M71.9,27.953c.151,1.355,1.468,2.244,3.266,2.244,1.723,0,2.963-.89,2.963-2.111,0-1.06-.748-1.7-2.518-2.13l-1.77-.427c-2.509-.606-3.673-1.779-3.673-3.683,0-2.357,2.054-3.976,4.971-3.976,2.887,0,4.866,1.619,4.932,3.976H78.007c-.124-1.363-1.25-2.186-2.9-2.186s-2.774.833-2.774,2.044c0,.966.72,1.534,2.481,1.969l1.505.37c2.8.663,3.967,1.789,3.967,3.787,0,2.556-2.036,4.156-5.274,4.156-3.03,0-5.075-1.563-5.207-4.034Z" transform="translate(-30.886 -17.871)" fill="#fff"/>
                    <path id="Path_152" d="M83.665,19.3v2.357h1.894v1.619H83.665v5.491c0,.853.379,1.25,1.212,1.25a6.388,6.388,0,0,0,.673-.047v1.609a5.614,5.614,0,0,1-1.136.095c-2.016,0-2.8-.757-2.8-2.689V23.276H80.163V21.657h1.448V19.3Z" transform="translate(-29.85 -17.728)" fill="#fff"/>
                    <path id="Path_153" d="M86.065,26.434c0-3.134,1.846-5.1,4.724-5.1s4.725,1.969,4.725,5.1-1.827,5.1-4.725,5.1S86.065,29.576,86.065,26.434Zm7.365,0c0-2.15-.985-3.418-2.642-3.418s-2.641,1.278-2.641,3.418c0,2.158.984,3.417,2.641,3.417s2.642-1.259,2.642-3.417Z" transform="translate(-29.259 -17.525)" fill="#fff"/>
                    <path id="Path_154" d="M96.186,21.452h1.95v1.7h.047a2.376,2.376,0,0,1,2.4-1.8,3.153,3.153,0,0,1,.7.076v1.912a2.858,2.858,0,0,0-.919-.124A2.06,2.06,0,0,0,98.23,25.5v5.908H96.186Z" transform="translate(-28.246 -17.523)" fill="#fff"/>
                    <path id="Path_155" d="M110.2,28.488c-.275,1.808-2.036,3.049-4.289,3.049-2.9,0-4.7-1.941-4.7-5.056s1.808-5.15,4.61-5.15c2.756,0,4.488,1.893,4.488,4.913v.7h-7.035v.124a2.594,2.594,0,0,0,2.679,2.821,2.253,2.253,0,0,0,2.3-1.4Zm-6.911-2.973h4.979a2.4,2.4,0,0,0-2.443-2.528,2.521,2.521,0,0,0-2.536,2.528Z" transform="translate(-27.742 -17.525)" fill="#fff"/>
                </g>
            </g>
        </g>
        <g id="_Group_4" transform="translate(39.241 9.281)">
            <g id="Group_57">
                <path id="Path_156" d="M38.042,8.732a2.9,2.9,0,0,1,3.089,3.262c0,2.1-1.133,3.3-3.089,3.3H35.671V8.732ZM36.69,14.367h1.238a2.064,2.064,0,0,0,2.165-2.361,2.069,2.069,0,0,0-2.165-2.347H36.69Z" transform="translate(-35.671 -8.408)" fill="#fff"/>
                <path id="Path_157" d="M41.682,12.678a2.347,2.347,0,1,1,4.672,0,2.347,2.347,0,1,1-4.672,0Zm3.667,0c0-1.074-.482-1.7-1.329-1.7s-1.328.628-1.328,1.7.478,1.705,1.328,1.705S45.348,13.756,45.348,12.678Z" transform="translate(-35.07 -8.27)" fill="#fff"/>
                <path id="Path_158" d="M52.074,15.149H51.06L50.036,11.5h-.077l-1.02,3.648h-1l-1.365-4.954h.992l.887,3.78h.073l1.018-3.78h.938l1.018,3.78h.077l.883-3.78h.978Z" transform="translate(-34.58 -8.261)" fill="#fff"/>
                <path id="Path_159" d="M53.854,10.2h.941v.787h.073a1.483,1.483,0,0,1,1.478-.883,1.611,1.611,0,0,1,1.715,1.842v3.207h-.978V12.2c0-.8-.346-1.192-1.069-1.192a1.136,1.136,0,0,0-1.183,1.255v2.9h-.978Z" transform="translate(-33.851 -8.27)" fill="#fff"/>
                <path id="Path_160" d="M59.094,8.437h.978v6.887h-.978Z" transform="translate(-33.326 -8.437)" fill="#fff"/>
                <path id="Path_161" d="M61.219,12.678a2.347,2.347,0,1,1,4.673,0,2.347,2.347,0,1,1-4.673,0Zm3.667,0c0-1.074-.482-1.7-1.329-1.7s-1.328.628-1.328,1.7.478,1.705,1.328,1.705S64.885,13.756,64.885,12.678Z" transform="translate(-33.115 -8.27)" fill="#fff"/>
                <path id="Path_162" d="M66.4,13.756c0-.892.664-1.406,1.842-1.479l1.342-.077v-.428c0-.523-.346-.819-1.014-.819-.546,0-.924.2-1.032.551h-.946c.1-.851.9-1.4,2.024-1.4,1.242,0,1.942.618,1.942,1.665v3.385h-.941v-.7H69.54a1.667,1.667,0,0,1-1.488.778A1.5,1.5,0,0,1,66.4,13.756Zm3.184-.423v-.414L68.375,13c-.682.046-.992.278-.992.714s.387.705.919.705a1.168,1.168,0,0,0,1.283-1.083Z" transform="translate(-32.595 -8.27)" fill="#fff"/>
                <path id="Path_163" d="M71.348,12.845c0-1.565.8-2.557,2.056-2.557a1.633,1.633,0,0,1,1.519.869H75V8.437h.978v6.887h-.937v-.783H74.96a1.719,1.719,0,0,1-1.556.864C72.144,15.406,71.348,14.414,71.348,12.845Zm1.01,0c0,1.051.5,1.683,1.324,1.683s1.333-.641,1.333-1.679-.515-1.683-1.333-1.683-1.324.637-1.324,1.679Z" transform="translate(-32.1 -8.437)" fill="#fff"/>
                <path id="Path_164" d="M79.231,12.678a2.347,2.347,0,1,1,4.672,0,2.347,2.347,0,1,1-4.672,0Zm3.667,0c0-1.074-.482-1.7-1.329-1.7s-1.328.628-1.328,1.7.478,1.705,1.328,1.705S82.9,13.756,82.9,12.678Z" transform="translate(-31.312 -8.27)" fill="#fff"/>
                <path id="Path_165" d="M84.669,10.2h.941v.787h.073a1.483,1.483,0,0,1,1.478-.883,1.611,1.611,0,0,1,1.715,1.842v3.207H87.9V12.2c0-.8-.346-1.192-1.069-1.192a1.136,1.136,0,0,0-1.183,1.255v2.9h-.978Z" transform="translate(-30.767 -8.27)" fill="#fff"/>
                <path id="Path_166" d="M93.676,9.074V10.33h1.073v.823H93.676V13.7c0,.519.214.746.7.746a3.263,3.263,0,0,0,.373-.023v.814a3.207,3.207,0,0,1-.532.05c-1.087,0-1.52-.382-1.52-1.338v-2.8h-.786V10.33H92.7V9.074Z" transform="translate(-30.042 -8.373)" fill="#fff"/>
                <path id="Path_167" d="M95.7,8.437h.969v2.73h.077a1.524,1.524,0,0,1,1.51-.887,1.632,1.632,0,0,1,1.706,1.847v3.2h-.979V12.367c0-.791-.369-1.192-1.059-1.192a1.157,1.157,0,0,0-1.247,1.256v2.893H95.7Z" transform="translate(-29.662 -8.437)" fill="#fff"/>
                <path id="Path_168" d="M105.166,13.82a2.011,2.011,0,0,1-2.146,1.433,2.25,2.25,0,0,1-2.288-2.557,2.285,2.285,0,0,1,2.284-2.588c1.378,0,2.21.942,2.21,2.5v.341h-3.5V13a1.309,1.309,0,0,0,1.319,1.419,1.187,1.187,0,0,0,1.179-.6Zm-3.439-1.6h2.5a1.2,1.2,0,0,0-1.219-1.283,1.267,1.267,0,0,0-1.283,1.283Z" transform="translate(-29.161 -8.27)" fill="#fff"/>
            </g>
        </g>
    </g>
</svg>