<svg width="485" height="68" viewBox="0 0 485 68" fill="none" xmlns="http://www.w3.org/2000/svg">
    <path d="M43.2016 2H441.798L481.798 34L441.798 66H43.2016L3.20156 34L43.2016 2Z" fill="#DBDFE9" stroke="black" stroke-width="4"/>
    <path d="M44 6H441L477 34L441 62H44L8 34L44 6Z" fill="#0A256A"/>
    <path d="M44 6H441L477 34L441 62H44L8 34L44 6Z" fill="#0A256A"/>
    <g filter="url(#filter0_i_421_17)">
        <path d="M94 9H390L417 34L390 59H94L67 34L94 9Z" fill="#101A33"/>
        <path d="M94 9H390L417 34L390 59H94L67 34L94 9Z" fill="#101A33"/>
    </g>
    <path d="M67 9H72L94 34L72 59H67L89 34L67 9Z" fill="#5B80DD"/>
    <path d="M45 9H94L67 34L94 59H45L13 34L45 9Z" fill="#DBDFE9"/>
    <path d="M45 9H94L67 34L94 59H45L13 34L45 9Z" fill="#DBDFE9"/>
    <path d="M13 34H67L94 59H45L13 34Z" fill="#AAB0BD"/>
    <g filter="url(#filter1_f_421_17)">
        <path d="M19 30H70.5L66.5 34L67.5 35H15L13.7354 34L19 30Z" fill="#F3F5F9" fill-opacity="0.83"/>
    </g>
    <path d="M417 9H412L390 34L412 59H417L395 34L417 9Z" fill="#5B80DD"/>
    <path d="M439 9H390L417 34L390 59H439L471 34L439 9Z" fill="#DBDFE9"/>
    <path d="M439 9H390L417 34L390 59H439L471 34L439 9Z" fill="#DBDFE9"/>
    <path d="M471 34H417L390 59H439L471 34Z" fill="#AAB0BD"/>
    <g filter="url(#filter2_f_421_17)">
        <path d="M465 30H413.5L417.5 34L416.5 35H469L470.265 34L465 30Z" fill="#F3F5F9" fill-opacity="0.83"/>
    </g>
    <defs>
        <filter id="filter0_i_421_17" x="67" y="9" width="354" height="54" filterUnits="userSpaceOnUse" color-interpolation-filters="sRGB">
            <feFlood flood-opacity="0" result="BackgroundImageFix"/>
            <feBlend mode="normal" in="SourceGraphic" in2="BackgroundImageFix" result="shape"/>
            <feColorMatrix in="SourceAlpha" type="matrix" values="0 0 0 0 0 0 0 0 0 0 0 0 0 0 0 0 0 0 127 0" result="hardAlpha"/>
            <feOffset dx="4" dy="4"/>
            <feGaussianBlur stdDeviation="2"/>
            <feComposite in2="hardAlpha" operator="arithmetic" k2="-1" k3="1"/>
            <feColorMatrix type="matrix" values="0 0 0 0 0 0 0 0 0 0 0 0 0 0 0 0 0 0 0.25 0"/>
            <feBlend mode="normal" in2="shape" result="effect1_innerShadow_421_17"/>
        </filter>
        <filter id="filter1_f_421_17" x="12.7354" y="29" width="58.7646" height="7" filterUnits="userSpaceOnUse" color-interpolation-filters="sRGB">
            <feFlood flood-opacity="0" result="BackgroundImageFix"/>
            <feBlend mode="normal" in="SourceGraphic" in2="BackgroundImageFix" result="shape"/>
            <feGaussianBlur stdDeviation="0.5" result="effect1_foregroundBlur_421_17"/>
        </filter>
        <filter id="filter2_f_421_17" x="412.5" y="29" width="58.7646" height="7" filterUnits="userSpaceOnUse" color-interpolation-filters="sRGB">
            <feFlood flood-opacity="0" result="BackgroundImageFix"/>
            <feBlend mode="normal" in="SourceGraphic" in2="BackgroundImageFix" result="shape"/>
            <feGaussianBlur stdDeviation="0.5" result="effect1_foregroundBlur_421_17"/>
        </filter>
    </defs>
</svg>
